<svg width="63" height="21" viewBox="0 0 63 21" fill="none" xmlns="http://www.w3.org/2000/svg">
<path d="M4.81775 6.24992L6.7383 12.9587C7.0857 14.1765 7.33259 15.3126 7.55546 16.4664H7.64941C7.87008 15.2751 8.1148 14.1986 8.44035 12.9587L10.2735 6.24992H14.9449L9.62457 20.6757H5.19356L0 6.24992H4.81775ZM17.7022 4.48503C16.2951 4.48503 15.384 3.49448 15.3906 2.24582C15.384 0.964072 16.317 0 17.7416 0C19.1661 0 20.0729 0.95966 20.0903 2.24582C20.0969 3.49448 19.1814 4.48503 17.7022 4.48503ZM15.5151 20.6757V6.24992H19.9636V20.6757H15.5151ZM22.0349 16.7687C22.8433 17.2717 24.5498 17.8408 25.8432 17.8408C27.1367 17.8408 27.7572 17.3842 27.7572 16.6495C27.7572 15.9149 27.3028 15.5399 25.6597 14.9817C22.6882 13.9956 21.5695 12.3631 21.587 10.671C21.587 7.96187 23.8506 5.92783 27.3967 5.92783C29.0682 5.92783 30.5474 6.32493 31.4213 6.76836L30.6479 9.85692C30.0055 9.51718 28.7601 9.04286 27.5518 9.04286C26.4681 9.04286 25.8476 9.47967 25.8476 10.2055C25.8476 10.9313 26.4135 11.26 28.1658 11.8711C30.8773 12.7999 32.0135 14.2096 32.0288 16.312C32.0288 19.0035 29.9487 20.989 25.8563 20.989C23.9948 20.989 22.319 20.5632 21.2309 19.9742L22.0349 16.7709V16.7687ZM35.4482 4.48503C34.0411 4.48503 33.13 3.49448 33.1365 2.24582C33.13 0.964072 34.0629 0 35.4875 0C36.912 0 37.8188 0.95966 37.8363 2.24582C37.8428 3.49448 36.9273 4.48503 35.4482 4.48503ZM33.2632 20.6757V6.24992H37.7117V20.6757H33.2632ZM44.7537 2.13552V6.24992H47.9503V9.55689H44.7537V14.7832C44.7537 16.5238 45.182 17.3246 46.506 17.3246C47.0785 17.3246 47.5198 17.2628 47.8257 17.19L47.8607 20.5985C47.2882 20.8081 46.2264 20.9846 44.9831 20.9846C43.5477 20.9846 42.3503 20.4794 41.6358 19.7337C40.8099 18.8799 40.4079 17.5077 40.4079 15.4582V9.55689H38.5092V6.24992H40.4079V3.15033L44.7515 2.13552H44.7537ZM55.7264 5.92562C60.0941 5.92562 63 8.96344 63 13.3183C63 18.5909 59.3009 21 55.4708 21C51.315 21 48.0945 18.2247 48.0945 13.5676C48.0945 8.91049 51.1359 5.92562 55.7286 5.92562H55.7264ZM52.6697 13.4661C52.6697 15.9281 53.701 17.7967 55.5931 17.7967C57.3258 17.7967 58.4204 16.0451 58.4204 13.4441C58.4204 11.3174 57.6076 9.13111 55.5975 9.13111C53.4803 9.13111 52.6697 11.3306 52.6697 13.4683V13.4661Z" fill="#007A61"/>
</svg>
