<svg width="20" height="20" viewBox="0 0 20 20" fill="none" xmlns="http://www.w3.org/2000/svg">
<path d="M10 0C4.3675 0 0 4.12739 0 9.69973C0 12.6147 1.195 15.1346 3.14 16.8745C3.3025 17.0195 3.4025 17.2245 3.4075 17.4445L3.4625 19.2245C3.4665 19.3554 3.50262 19.4834 3.56767 19.5972C3.63271 19.7109 3.72471 19.8069 3.83556 19.8768C3.94641 19.9467 4.07272 19.9882 4.2034 19.9978C4.33407 20.0075 4.46511 19.9848 4.585 19.932L6.57 19.057C6.7375 18.982 6.9275 18.9695 7.105 19.017C8.0175 19.267 8.9875 19.402 10 19.402C15.6325 19.402 20 15.2746 20 9.70223C20 4.12989 15.6325 0 10 0Z" fill="url(#paint0_radial_3615_11029)"/>
<path d="M3.99544 12.5381L6.93294 7.8782C7.04344 7.70276 7.18912 7.55213 7.36077 7.43583C7.53243 7.31952 7.72633 7.24007 7.93024 7.20249C8.13416 7.1649 8.34364 7.17 8.54549 7.21745C8.74733 7.26491 8.93714 7.3537 9.10294 7.47821L11.4404 9.23066C11.5448 9.30878 11.6717 9.3508 11.8021 9.35035C11.9325 9.3499 12.0591 9.30701 12.1629 9.22816L15.3179 6.83323C15.7379 6.51323 16.2879 7.01822 16.0079 7.46571L13.0679 12.1231C12.9574 12.2985 12.8118 12.4491 12.6401 12.5655C12.4684 12.6818 12.2745 12.7612 12.0706 12.7988C11.8667 12.8364 11.6572 12.8313 11.4554 12.7838C11.2535 12.7364 11.0637 12.6476 10.8979 12.5231L8.56044 10.7706C8.45608 10.6925 8.32913 10.6505 8.19877 10.6509C8.06841 10.6514 7.94175 10.6943 7.83794 10.7731L4.68294 13.1681C4.26294 13.488 3.71294 12.9856 3.99544 12.5381Z" fill="white"/>
<defs>
<radialGradient id="paint0_radial_3615_11029" cx="0" cy="0" r="1" gradientUnits="userSpaceOnUse" gradientTransform="translate(3.35 19.9995) scale(22 21.9994)">
<stop stop-color="#0099FF"/>
<stop offset="0.6" stop-color="#A033FF"/>
<stop offset="0.9" stop-color="#FF5280"/>
<stop offset="1" stop-color="#FF7061"/>
</radialGradient>
</defs>
</svg>
