<svg width="20" height="20" viewBox="0 0 20 20" fill="none" xmlns="http://www.w3.org/2000/svg">
<g clip-path="url(#clip0_3615_11036)">
<path d="M5.48249 6.76763C5.65657 6.21498 6.13086 5.55356 6.47453 5.38397C6.62677 5.30989 6.73983 5.29254 7.10963 5.29234C7.54473 5.29234 7.56656 5.29682 7.67962 5.40989C7.7535 5.48825 7.9537 5.91458 8.24084 6.60212C8.48452 7.19396 8.68472 7.69865 8.68472 7.72477C8.68472 7.84681 8.44105 8.23395 8.16268 8.56027C7.97125 8.78211 7.85819 8.9517 7.85819 9.01272C7.85819 9.06925 7.99738 9.33027 8.17146 9.587C8.5935 10.218 9.37227 11.0011 9.97716 11.4015C10.4512 11.7147 11.2955 12.1237 11.4651 12.1237C11.5914 12.1237 11.822 11.8974 12.2918 11.3062C12.4835 11.067 12.6531 10.8929 12.7184 10.8799C12.7749 10.8623 12.9143 10.8841 13.0273 10.9276C13.3537 11.0537 15.0028 11.8586 15.0898 11.937C15.2596 12.0935 15.1204 12.9898 14.8679 13.3553C14.4806 13.9211 13.3755 14.4041 12.6488 14.33C12.118 14.2735 10.8649 13.8602 10.0512 13.4729C9.00696 12.9725 7.90615 12.0586 7.01412 10.9405C6.50494 10.3052 5.99147 9.53068 5.76963 9.06946C5.46943 8.44293 5.36066 7.95987 5.39107 7.40293C5.40413 7.16355 5.4476 6.87641 5.48249 6.76763Z" fill="#25D366"/>
<path fill-rule="evenodd" clip-rule="evenodd" d="M0.504839 7.9162C1.31851 3.74357 4.64706 0.632567 8.92418 0.0495079C9.51152 -0.0331439 11.1607 -0.00702279 11.7309 0.0886912C12.327 0.192977 13.1146 0.397465 13.5976 0.580321C16.7913 1.76807 19.1496 4.51377 19.8196 7.8162C20.111 9.25639 20.0457 10.9447 19.6498 12.3631C18.7055 15.7221 15.9643 18.3676 12.5574 19.2116C10.3385 19.7598 8.00622 19.5204 5.9046 18.5372L5.39114 18.2935L2.70217 19.1506C1.22708 19.6206 0.00892335 19.9949 0.00014789 19.9861C-0.00862757 19.9773 0.374227 18.8069 0.857286 17.3929L1.73177 14.8125L1.37932 14.1121C0.40035 12.1411 0.100147 10.009 0.504839 7.9162ZM18.1486 7.57681C17.2915 4.44397 14.5676 2.05521 11.3609 1.62011C9.61172 1.38521 7.96255 1.65072 6.44399 2.41643C2.76299 4.27867 1.00953 8.53415 2.33626 12.3805C2.50585 12.8721 2.96278 13.799 3.24564 14.2253L3.47196 14.5647L2.96727 16.0441C2.68891 16.8578 2.46258 17.541 2.46258 17.5584C2.46258 17.58 3.16299 17.3712 4.01584 17.1014C4.87298 16.8274 5.58664 16.6053 5.59971 16.6053C5.61726 16.6053 5.78685 16.6968 5.97399 16.8055C7.99724 18.0106 10.5209 18.2718 12.7966 17.5147C15.4596 16.6314 17.5088 14.4341 18.1964 11.7278C18.5315 10.405 18.5141 8.91272 18.1486 7.57681Z" fill="#25D366"/>
</g>
<defs>
<clipPath id="clip0_3615_11036">
<rect width="20" height="20" fill="white"/>
</clipPath>
</defs>
</svg>
